<?xml version="1.0" encoding="iso-8859-1"?>
<!-- Generator: Adobe Illustrator 16.0.0, SVG Export Plug-In . SVG Version: 6.00 Build 0)  -->
<!DOCTYPE svg PUBLIC "-//W3C//DTD SVG 1.1//EN" "http://www.w3.org/Graphics/SVG/1.1/DTD/svg11.dtd">
<svg xmlns="http://www.w3.org/2000/svg" xmlns:xlink="http://www.w3.org/1999/xlink" version="1.1" id="Capa_1" x="0px" y="0px" width="512px" height="512px" viewBox="0 0 439.875 439.875" style="enable-background:new 0 0 439.875 439.875;" xml:space="preserve">
<g>
	<g>
		<path d="M210.375,248.625V191.25c0-21.038-17.212-38.25-38.25-38.25H153c-21.038,0-38.25,17.212-38.25,38.25v57.375    c0,21.037,17.212,38.25,38.25,38.25h19.125c3.825,0,9.562,0,13.388-1.912l17.212,17.212l13.387-13.388l-15.3-15.3    C206.55,267.75,210.375,258.188,210.375,248.625z M191.25,248.625c0,3.825-1.913,7.65-3.825,11.475l-26.775-26.774l-13.387,13.388    L168.3,267.75H153c-11.475,0-19.125-7.65-19.125-19.125V191.25c0-11.475,7.65-19.125,19.125-19.125h19.125    c11.475,0,19.125,7.65,19.125,19.125V248.625z" fill="#006DF0"/>
		<path d="M382.5,95.625H57.375C24.862,95.625,0,120.487,0,153v133.875c0,32.513,24.862,57.375,57.375,57.375H382.5    c32.513,0,57.375-24.862,57.375-57.375V153C439.875,120.487,415.013,95.625,382.5,95.625z M420.75,286.875    c0,21.037-17.213,38.25-38.25,38.25H57.375c-21.038,0-38.25-17.213-38.25-38.25V153c0-21.038,17.212-38.25,38.25-38.25H382.5    c21.037,0,38.25,17.212,38.25,38.25V286.875z" fill="#006DF0"/>
		<polygon points="229.5,172.125 267.75,172.125 267.75,286.875 286.875,286.875 286.875,172.125 325.125,172.125 325.125,153     229.5,153   " fill="#006DF0"/>
	</g>
</g>
<g>
</g>
<g>
</g>
<g>
</g>
<g>
</g>
<g>
</g>
<g>
</g>
<g>
</g>
<g>
</g>
<g>
</g>
<g>
</g>
<g>
</g>
<g>
</g>
<g>
</g>
<g>
</g>
<g>
</g>
</svg>
