<?xml version="1.0" encoding="iso-8859-1"?>
<!-- Generator: Adobe Illustrator 19.0.0, SVG Export Plug-In . SVG Version: 6.00 Build 0)  -->
<svg xmlns="http://www.w3.org/2000/svg" xmlns:xlink="http://www.w3.org/1999/xlink" version="1.1" id="Capa_1" x="0px" y="0px" viewBox="0 0 512.004 512.004" style="enable-background:new 0 0 512.004 512.004;" xml:space="preserve" width="512px" height="512px">
<g>
	<g>
		<path d="M426.669,93.87H85.335c-4.71,0-8.533,3.814-8.533,8.533v307.2c0,4.719,3.823,8.533,8.533,8.533h341.333    c4.71,0,8.533-3.814,8.533-8.533v-307.2C435.202,97.684,431.379,93.87,426.669,93.87z M418.135,401.07H93.869V110.937h324.267    V401.07z" fill="#006DF0"/>
	</g>
</g>
<g>
	<g>
		<path d="M375.469,145.07H136.535c-4.71,0-8.533,3.814-8.533,8.533v204.8c0,4.719,3.823,8.533,8.533,8.533h238.933    c4.71,0,8.533-3.814,8.533-8.533v-204.8C384.002,148.884,380.179,145.07,375.469,145.07z M366.935,349.87H145.069V162.137h221.867    V349.87z" fill="#006DF0"/>
	</g>
</g>
<g>
	<g>
		<path d="M88.604,26.252c-3.183-1.34-6.861-0.597-9.301,1.852L11.036,96.37c-2.441,2.44-3.174,6.11-1.852,9.301    c1.323,3.191,4.429,5.265,7.885,5.265h68.267c4.71,0,8.533-3.814,8.533-8.533V34.137C93.869,30.689,91.787,27.566,88.604,26.252z     M76.802,93.87H37.668l39.134-39.134V93.87z" fill="#006DF0"/>
	</g>
</g>
<g>
	<g>
		<path d="M57.235,62.237L14.569,19.57c-3.328-3.336-8.738-3.336-12.066,0c-3.336,3.337-3.336,8.73,0,12.066l42.667,42.667    c1.664,1.664,3.849,2.5,6.033,2.5c2.185,0,4.369-0.836,6.033-2.5C60.572,70.966,60.572,65.573,57.235,62.237z" fill="#006DF0"/>
	</g>
</g>
<g>
	<g>
		<path d="M85.335,401.07H17.069c-3.456,0-6.562,2.074-7.885,5.265c-1.323,3.191-0.589,6.861,1.852,9.301l68.267,68.267    c1.63,1.63,3.814,2.5,6.033,2.5c1.101,0,2.21-0.205,3.268-0.649c3.183-1.314,5.265-4.437,5.265-7.885v-68.267    C93.869,404.884,90.046,401.07,85.335,401.07z M76.802,457.27l-39.134-39.134h39.134V457.27z" fill="#006DF0"/>
	</g>
</g>
<g>
	<g>
		<path d="M57.235,437.703c-3.328-3.336-8.738-3.336-12.066,0L2.502,480.37c-3.336,3.337-3.336,8.73,0,12.066    c1.664,1.664,3.849,2.5,6.033,2.5c2.185,0,4.369-0.836,6.033-2.5l42.667-42.667C60.572,446.433,60.572,441.04,57.235,437.703z" fill="#006DF0"/>
	</g>
</g>
<g>
	<g>
		<path d="M500.969,96.37l-68.267-68.267c-2.441-2.441-6.11-3.183-9.301-1.852c-3.183,1.314-5.265,4.437-5.265,7.885v68.267    c0,4.719,3.823,8.533,8.533,8.533h68.267c3.456,0,6.562-2.074,7.885-5.265S503.409,98.811,500.969,96.37z M435.202,93.87V54.736    l39.134,39.134H435.202z" fill="#006DF0"/>
	</g>
</g>
<g>
	<g>
		<path d="M509.502,19.57c-3.328-3.336-8.738-3.336-12.066,0l-42.667,42.667c-3.337,3.337-3.337,8.73,0,12.066    c1.664,1.664,3.849,2.5,6.033,2.5c2.185,0,4.369-0.836,6.033-2.5l42.667-42.667C512.838,28.3,512.838,22.907,509.502,19.57z" fill="#006DF0"/>
	</g>
</g>
<g>
	<g>
		<path d="M502.82,406.335c-1.323-3.191-4.429-5.265-7.885-5.265h-68.267c-4.71,0-8.533,3.814-8.533,8.533v68.267    c0,3.447,2.082,6.571,5.274,7.885c1.05,0.444,2.159,0.649,3.26,0.649c2.219,0,4.403-0.87,6.033-2.5l68.267-68.267    C503.409,413.196,504.143,409.526,502.82,406.335z M435.202,457.27v-39.134h39.134L435.202,457.27z" fill="#006DF0"/>
	</g>
</g>
<g>
	<g>
		<path d="M509.502,480.37l-42.667-42.667c-3.328-3.336-8.738-3.336-12.066,0c-3.337,3.337-3.337,8.73,0,12.066l42.667,42.667    c1.664,1.664,3.849,2.5,6.033,2.5c2.185,0,4.369-0.836,6.033-2.5C512.838,489.1,512.838,483.707,509.502,480.37z" fill="#006DF0"/>
	</g>
</g>
<g>
</g>
<g>
</g>
<g>
</g>
<g>
</g>
<g>
</g>
<g>
</g>
<g>
</g>
<g>
</g>
<g>
</g>
<g>
</g>
<g>
</g>
<g>
</g>
<g>
</g>
<g>
</g>
<g>
</g>
</svg>
